# xmcd
#
# Track frame offsets:
#	150
#	16352
#	31392
#	43257
#	52632
#	64116
#	80280
#	92469
#	105759
#	116882
#	130578
#	145762
#	159089
#	171026
#	182710
#	196766
#	207343
#	219714
#	233260
#	245740
#	259104
#	269746
#
# Disc length: 3766 seconds
#
# Revision: 0
# Processed by: cddbd v1.5.2PL0 Copyright (c) Steve Scherf et al.
# Submitted via: EasyCDDAExtractor 16.0.6.1
#
DISCID=220eb416
DTITLE=MAIARA and MARAISA - REFLEXO
DYEAR=2019
DGENRE=Country
TTITLE0=CORAÇÃO INFECTADO
TTITLE1=AI, QUE VONTADE
TTITLE2=AUTOMATICAMENTE
TTITLE3=JOGO É JOGO
TTITLE4=TCHAU
TTITLE5=SEPARADA
TTITLE6=LIGAÇÃO DE EMERGÊNCIA
TTITLE7=REPERTÓRIO DE OUTRO
TTITLE8=BEBO LITRO (Part. Esp. Jorge and Mateus)
TTITLE9=EXPLODIU. HEIN?  (Part. Esp. Mateus)
TTITLE10=NEM TCHUM
TTITLE11=MEU, DELE, NOSSO (Part. Esp. Gustavo Mioto)
TTITLE12=SAUDADEZINHA
TTITLE13=FALSA TENTAÇÃO
TTITLE14=VAI TER QUE CONFIAR EM MIM
TTITLE15=SIMPLEZIM DE TUDO (Part. Esp. Henrique and Juliano)
TTITLE16=A PERGUNTA (Part. Esp. Henrique and Juliano)
TTITLE17=NÃO ABRO MÃO 
TTITLE18=PROBLEMA
TTITLE19=TRAÍ SIM (Part. Esp. Zé Neto and Cristiano)
TTITLE20=NUNCA TIVE NADA 
TTITLE21=EXPECTATIVA
EXTD=
EXTT0=
EXTT1=
EXTT2=
EXTT3=
EXTT4=
EXTT5=
EXTT6=
EXTT7=
EXTT8=
EXTT9=
EXTT10=
EXTT11=
EXTT12=
EXTT13=
EXTT14=
EXTT15=
EXTT16=
EXTT17=
EXTT18=
EXTT19=
EXTT20=
EXTT21=
PLAYORDER=
